<svg enable-background="new 0 0 864 864" viewBox="0 0 864 864" xmlns="http://www.w3.org/2000/svg"><path d="m552.5 461.7c7.3 10.6 14.5 21.1 21.9 31.4.8 1.1 2.8 1.4 4.3 1.8 23.9 5.6 46.9 13.6 68.8 24.8 2.1 1.1 5.5.1 8.3-.4 12.2-2.2 17.8-9.5 21.9-21.5 16.7-49 34.9-97.6 52.4-146.4 2.8-7.7 4.9-15.5 7.6-24.2-7.6-.5-14.2-1-20.7-1.5-8.2-.6-9.5-2.9-5.5-9.7 3.4-5.7 6.5-11.8 11-16.5 5.8-6 6.5-12 4.6-19.6-1.5-5.9-2-12.2-1.7-18.3.5-8.5 5.8-11.2 12.4-5.9 6.7 5.4 12.7 11.7 18.2 18.2 2.9 3.4 4.4 5.1 9.7 4.4 7.9-1.1 16.4-.7 24.2 1.1s8.7 6.7 3.5 12.8c-3.4 4-7.2 7.7-11.3 10.9-4.4 3.4-5.6 6.8-4.3 12.3 1.9 7.5 2.7 15.3 3.8 23 .3 2.4.1 4.8.1 7-14 4.4-21.5-7.5-32.7-11-6.6 18.7-13.1 37.1-19.7 55.6-12.4 34.6-24.9 69.2-37.3 103.8-2.1 6-3.9 12.1-5.6 18.3-.4 1.5-.1 3.5.6 4.8 6.3 10.5 5.2 14.8-5.6 20.6-.8.4-1.5 1-2.6 1.7 3.1 3.9 5.9 7.7 9 11.2 3.1 3.6 4.1 8.1.8 11.1-2.8 2.5-7.5 4-11.3 3.9-3.3-.1-5.6-1.3-8 2.3-3.2 5-12 6.1-16 1.6s-7.3-9.9-9.3-15.5c-1.6-4.5-3.8-7.3-8-9.2-14.3-6.3-28.6-12.7-42.9-19.1-.5.5-1 1-1.5 1.5 3.1 11.1 6.9 22.1 9.2 33.3 6.2 30 11.7 60 17.4 90.1 1.8 9.6 3.8 19.3 5.1 29 1.7 12.2-2.6 16.9-15 16.9-28.1 0-56.2 0-85.5 0-.9 19.7-1.7 37.6-2.5 56.3 8.7-.4 16.4-.9 24-1.1 7.5-.2 15.1-.4 22.6-.2 3.1.1 6.5.7 9.2 2.2 7 3.9 7.4 12.1.6 16.4-3.5 2.3-7.9 4.6-11.9 4.5-19.6-.6-39.2-1.5-58.7-3.5-10.1-1-13.1-5.8-12.9-16.5.3-16.9.8-33.8 1.7-50.7.3-5.3-1.6-6.8-6.5-6.8-35-.1-70-.5-105-.5-1.8 0-4.9 2.2-5 3.6-1.2 17-1.9 34.1-2.8 52.1 10-.9 18.6-1.6 27.2-2.3 5.5-.4 10.9-.7 16.4-.9 1.8-.1 3.7.2 5.4.6 6.8 1.7 12.8 7.5 12.5 12-.3 5.2-5.6 10.1-13.6 10-21.7-.2-43.3-1.1-65-2.2-6.8-.4-9.9-6.8-9.7-17 .4-16.9 1-33.8 1.4-50.7.1-1.8 0-3.6 0-6.4-10.4-.6-20.6-1.4-30.7-1.8-11.2-.4-22.4-.4-33.6-.6-8.3-.2-11.1-3.4-10.1-11.5 1.4-10.7 2.8-21.4 4.5-34.3-6.6 1.5-12.3 1.7-17 4-14.5 7.2-34.8 5.6-44.9-4.8-5.1-5.3-10.1-11.3-6.9-19.4 2.5-6.4 9.1-7.9 20.3-5.7 1.6-8.6 2.2-18.2 10.7-23.2 4.3-2.5 9.8-3.7 14.9-4 13-.7 19.7 6.1 27.9 25.5 2.8-13.2 5.6-26.4 8.8-41.3-8.1 1.9-14.1 2.9-19.8 4.7-36.2 10.9-72.8 12-108.8.9-34.7-10.7-60.2-32.7-70.1-68.9-8-29.5 2.4-54.7 20.9-77.5 2.2-2.7 3.7-6.1 5.1-9.3 5.5-12.5 9.3-26 16.6-37.3 18.2-27.7 44.7-35.7 77-29.9 33.2 5.9 57.7 25 80 48.3 14.8 15.4 27.2 32.6 37.4 51.4 2.1 3.9 4.7 7.5 7.5 11.7 4-3.7 4.2-5.9 1-9.2-29.6-30.6-40.8-67.9-38.9-109.7 1.3-29.5 9.2-57.2 25.7-82 1.5-2.3 2.6-4.8 3.8-7.3-3.1-2.8-7.2-5.1-8.5-8.4-1.2-2.9.9-7.1 1.3-9.9-27.4-25.8-54.8-51.6-82.1-77.6-2.3-2.2-3.7-5.3-5.5-8 3.4-1.8 6.7-4.7 10.3-5.3 25.1-3.9 50.1-2.9 74.9 2.8 1.6.4 3.1.7 4.7.9.4.1.8-.2 2.3-.7-1.7-13.3-3.4-26.8-5.2-40.3-.7-5.2-1.8-10.4-2.2-15.6-.5-6.2 2.6-9 8.2-6.7 9.4 4 18.7 8.3 27.5 13.5 8.5 5.1 16.3 11.6 25 17.9 2.6-6.8 4.9-12.9 7.4-18.9 6.9-16.2 16.6-30.4 28.9-43 1-1 1.9-2 3-2.8 6-4.2 10.4-2.5 11.7 4.7 3.1 17.6 5.6 35.2 9.2 52.6 2.5 12 6.4 23.8 10 35.6 1.1 3.6 2.6 6.8 8 6.5 5.6-.3 7.5 3.9 7.3 14.6 10.5-2.4 20.7-5.2 31.1-7.1 27.9-5 55.8-9.6 83.7-14.3 39.7-6.6 83 30.8 78 74.5-1.9 16.4-10.8 29.2-21.7 41.1-17.5 19.1-38.5 33.5-60.4 46.9-1.9 1.2-3.7 2.6-5.7 4 26 51.6 23.9 98.9-20.2 140.7z"/><g fill="#f9c3d2"><path d="m558.2 170.4c-5.7 22.9-3 44 8.2 63.6 11.3 19.9 28.4 31.7 52.5 34.2-12.2 16.1-26.8 27.6-44.2 35.6-4.3 2-9.5 2.2-14.2 3.4-1.3.3-2.7.8-3.6 1.7-2.9 2.9-5.7 5.9-8.2 9.2-.9 1.2-1.6 3.5-1 4.7s3.1 2.8 4.2 2.4c9.8-3.4 13.1 3 15.9 10.1 10.2 25.3 14.6 51.4 4.8 77.5-8.6 22.7-25 40.3-46.1 51.8-44.2 24.2-91.4 29.7-138.9 12.1-39.1-14.5-61.6-45-70.4-85.6-5.9-27.3-5.5-54.3 2.7-81.3 9.3-30.4 28.2-54.1 53.6-71.7 31.9-22 64.8-43.3 103.1-53 23.4-6 47.4-9.6 71.1-14.2 3-.4 6.2-.2 10.5-.5zm-57.4 20.3c-21.8-.4-32.1 12.7-32.3 27-.3 20 7.8 31.2 28.5 31 17-.1 30.2-12.5 30.1-28.8 0-18-10.1-29.2-26.3-29.2zm-38.8 63.4c-1.1-5.6-1.6-11.4-3.5-16.6-3.1-8.4-8.5-15.6-18-17.1-18.1-2.9-38.3 15.6-38 34.1.2 15.7 12.8 29.4 26.8 29.3 21.3-.1 32.2-10.2 32.7-29.7zm18.4 167.1c16.9-.2 32.2-3.7 45.2-13.4 13.9-10.4 23.1-24 23.1-42.1 0-3.2-3-6.3-4.6-9.5-1.4 3-3.6 5.8-4.1 9-5.1 35.4-46.8 56.2-78.2 38.5-7-4-12.9-10-19.6-14.6-1.7-1.2-5.7-1.5-6.8-.4-1.4 1.3-1.7 5.1-.8 7 1.9 4.1 4.3 8.1 7.4 11.3 10.7 10.9 23.9 15.5 38.4 14.2zm-64.2-60.1c-2.4-8.5-3.6-17.5-7.5-25.3-8.6-17.3-30.2-25.5-51.9-21.2-11.3 2.3-19.5 8.3-23.5 19.5-8.4 23.5 3.4 52.4 25.9 63.4 26.5 13.1 56.7-6.4 57-36.4z"/><path d="m586.3 167.8c21.8.2 41.2 6 54.1 25.2 9.1 13.6 10.6 28.9 5.7 44.1-6.3 19.5-35.8 24.6-54.3 10-10.7-8.5-18-19.6-21.7-32.6-2.5-8.7-4-17.8-5.1-26.9-1.4-12.8 6.4-19.8 21.3-19.8zm16 45.2c.1-5.1-4.4-10.3-9-10.2-5.3.1-9.7 4.2-9.9 9.2-.3 6.4 4.3 12 9.7 11.8 4.8 0 9.1-5.1 9.2-10.8zm28.3-6.7c.2-6.2-2.8-10.6-7.7-11-5.9-.5-10.4 3.8-10.6 9.9-.2 6 3.5 10.4 9 10.8 4.7.3 9.1-4.3 9.3-9.7z"/><path d="m244.5 635c-6.7-11.4-9.4-22.8.7-33.3 5.9-6.1 13.1-4.4 19.8-1.7 12.9 5.2 10.8 16.9 10.8 27.9 2.3.6 4.4 1.1 6.5 1.6.9 10-1.1 12.3-10.5 13.4-3.7.4-7.4 1.6-10.9 3.1-11.3 4.9-22.8 5.5-33.6.2-4.5-2.2-7.7-7.4-10.7-11.7-1-1.4-.4-5.1.8-6.5 1.3-1.5 4.7-2.6 6.5-2 3.5 1.2 6.5 3.8 9.6 5.8 3 1.9 5.9 3.7 8.9 5.5.7-.9 1.4-1.6 2.1-2.3zm19.5-14.6c-2.4-2.7-4.1-4.8-5.8-6.8-1.8 1.7-5.2 3.6-5 4.9.6 2.8 3 5.2 4.6 7.8 1.8-1.6 3.5-3.3 6.2-5.9z"/><path d="m669.5 523.3c-4.2 13.3-8.4 27-12.7 40.6-.9 0-1.8-.1-2.7-.1-2.1-4.7-3.8-9.5-6.3-14-1.5-2.8-3.5-6.1-6.2-7.4-16.2-8-32.5-15.5-48.9-22.9-7.9-3.5-11.1-7.5-12.1-17.4 16.2 2.5 31.4 7.9 46.2 14.2 1.9.8 3.9 1.5 5.6 2.5 10.3 6.2 20.5 11.8 32.4 3.5.5-.3 1.3-.3 2-.2.4-.1.8.3 2.7 1.2z"/><path d="m514.6 697c0 18.5.2 35.6-.1 52.6-.1 7.1-6.3 5.8-10.8 6.3-5 .6-4.8-3.3-4.7-6.4.6-16.2 1.3-32.3 2.3-48.5.1-1.4 2.4-3.6 4-3.9 3.3-.5 6.7-.1 9.3-.1z"/><path d="m354.9 753.9c-.2-3.7-.7-7.5-.6-11.3.6-13.7 1.8-27.4 2.1-41.1.1-7.5 4.6-6.7 9.6-6.9 5.8-.2 5.4 3.4 5.2 7.2-.6 13.7-1 27.4-1.6 41.1-.5 11.3-2.5 12.7-14.7 11z"/><path d="m687.6 521.9c-1 3.2-2 6.4-3.3 9.5-.1.3-2.6-.4-4-.7 1-3.3 2-6.7 3-10 1.4.4 2.8.8 4.3 1.2z"/><path d="m676.2 545.7c6.8 1.7 12.5 8.8 10 13.1-1.3 2.2-6.1 3.9-8.8 3.4-5.8-1-6-5.9-1.2-16.5z"/><path d="m437.2 595.5c4.2 4.5 8 7.9 11 11.9 1.3 1.8 2.2 6 1.2 7.1-1.7 1.7-5.6 2.9-7.6 2-4.6-2.1-8.7-5.5-12.8-8.5-2.5-1.9-4.7-4.1-8.6-7.5 0 6.1-.1 10.4 0 14.7s.1 8.5-5.6 9.1c-5.5.6-7.7-3.6-7.9-7.5-.3-7.2.1-14.6 1.5-21.6 1-5.2.1-8.7-2.8-13.1-11.6-17.4-22.7-35.2-33.5-53.1-2.7-4.4-7.6-11.1-.8-15 5.7-3.2 9.8 3.6 12.8 7.6 6 8 11 16.8 16.6 25.1 4.1 6.1 8.9 11.7 12.5 18 6.5 11.6 15.5 18.6 29.2 18.8 3.6 0 6.9 1.8 5.7 5.8-.7 2.3-3.8 4.1-6.1 5.8-1.1.3-2.7.1-4.8.4z"/></g><path d="m334.7 110.5c11.6 4 20 10.1 28.1 16.8 6.6 5.5 13.6 10.7 20.8 15.5 6.7 4.5 9.5 2.8 10.5-5.2 2.4-19.1 8.2-37 21.6-51.6 1.8-1.9 3.8-3.6 7-6.6 1.9 8.8 3.3 16.1 5.1 23.3 4.7 18.1 9.7 36.2 14.5 54.2 3.5 13.1 3.6 13.2-7.3 20.9-29.4 21-58.7 42-91.2 58.1-2.1 1-5.6 1.6-7.3.5-29.5-19.2-54.3-43.7-77.5-72 10.5 0 21.2-1.2 31.4.3 14.6 2.2 28.9 6.1 43.3 9.8 8.3 2.1 9.8 1 8.6-7.4-2.6-18.4-4.9-36.9-7.6-56.6zm25 97.8c0-10.1-5-15-15.2-15-11.7 0-20.4 6.9-20.3 16 .1 10.6 7.4 17.4 18.6 17.6 9.6.1 16.9-7.9 16.9-18.6zm56.4-62.1c-11.2 0-18.1 6.4-18.2 16.8-.1 9 7.1 15.5 17 15.7 9 .1 16-7.1 16.2-16.8.2-9.4-5.8-15.7-15-15.7zm-35.3 23.1c-10.5-.1-17.2 6.5-17.2 16.8 0 9.9 5.9 14.8 18 14.8 9.2 0 16.1-6.4 16.1-15-.1-10.2-6.5-16.5-16.9-16.6z" fill="#ffc60b"/><path d="m770.4 335.8c-5.2-3.9-10.4-7.8-16.7-12.6 5.4-3.4 9.3-5.8 14.5-9.1 1.6 7.3 2.9 13.7 4.3 20.1-.7.6-1.4 1.1-2.1 1.6z" fill="#ffc60b"/><path d="m750 283.1c-3.7 1.4-7 2.7-11 4.3-1.1-6.5-2.2-12.3-3.2-18.1 7.5-.4 11.1 3.1 14.2 13.8z" fill="#ffc60b"/><path d="m732.5 301.6c1.9 5.3 3.2 8.9 5.2 14.6-5.6-.6-9.4-1-15.2-1.6 3.9-5.1 6.5-8.3 10-13z" fill="#ffc60b"/><path d="m781.2 289.5c-3.1 3.4-6.1 6.8-10 11.1-2.1-3.5-3.7-6.1-6.2-10.3 5.8-1.3 10.3-2.3 14.9-3.2.4.8.8 1.6 1.3 2.4z" fill="#ffc60b"/><path d="m208.9 581c-22.6-.3-46.1-3-66-17.4-18.7-13.5-36-29.2-39.1-53.9-3.5-28.3 2.3-53.9 26.5-72.1 10.9-8.2 23.4-12.4 37.1-11.9 52 1.6 98.6 17.5 137.6 53.1.5.5 1 .9 1.5 1.4 15.8 15.4 16.1 18 7.6 38.1-5.3 12.6-9.6 25.6-14.9 38.3-1.3 3.2-4.1 6.6-7.1 8-25.8 12.1-53.5 16.3-83.2 16.4z" fill="#fff"/><path d="m327.8 490.2c-53-57.4-116.2-83.8-194.8-68.4 6.1-25.6 20.2-43.2 45.2-50.1 28.3-7.8 54.6-1 77.9 15.6 32.2 22.9 56.1 53.2 74 88.4 3 6.2 1.5 10.3-2.3 14.5z" fill="#fff"/><path d="m515.6 216.3c-7.8-4.2-15.5-6.8-18.8 1.5-2.7 6.9 3.4 11.9 9.8 15-5.6 5.3-14.7 6.5-20.4 3.2-4.8-2.8-8.7-13.9-6.8-21.2 1.6-6.2 4.8-11.6 12-12.6 11.7-1.5 18.5 2.2 24.2 14.1z" fill="#fff"/><path d="m448.1 262.5c-3.8 9.4-12.9 13.1-22.5 10.1-8-2.4-13.7-12.7-12.3-22.2 1.5-10.5 10.5-18.7 20.4-18.6 8.8.1 15.5 7.1 16.6 18.1-5.7-2.8-11.7-7.4-16.8-.6-1.5 2-1.4 6.2-.3 8.6 2.7 6.1 8.2 6.5 14.9 4.6z" fill="#fff"/><path d="m412.2 358.6c-1.4 6.9-2.3 13.9-4.4 20.6-2.3 7.6-7.8 12.7-15.2 15.7-17.8 7.2-35 3.2-46.8-11.8-9.9-12.6-14-27.2-10.8-43.1 2.7-13.7 12.5-22 26.5-22.3 7.2-.1 14.8.2 21.7 2.1 19.1 5.2 27.6 17.5 29 38.8z" fill="#ff7bac"/><path d="m607.1 683.7c-9 .6-17.6 1.6-26.3 1.6-51-.1-102-.2-153-.8-38.4-.5-76.8-1.6-115.2-2.7-5.9-.2-11.7-1.3-17.6-2.2-3.7-.6-5-2.7-4.2-6.8 5.7-30.5 10.7-61.2 16.8-91.6 6-29.7 16.3-58.1 31.8-84.2 3.6-6.1 8.2-11.6 12.3-17.3 2-2.8 4-3.4 7.4-1.4 47.4 26.8 96.7 29 147.1 9.8 10.4-4 20.4-9.2 30.2-14.5 3.9-2.1 5.9-1.5 8.5 1.6 18 21.3 29.6 45.9 37.8 72.4 13.1 42.3 19.9 85.8 24.2 129.8.3 1.8.2 3.8.2 6.3zm-157.1-84.7c7.1-13.5 5.1-18.1-10-22.4-2-.6-4.2-.4-6-1.3-3.3-1.5-7.5-2.7-9.5-5.4-9.1-12.2-17.4-25.1-26.5-37.4-5.9-8-12.5-15.7-19.4-22.9-4.4-4.6-8.6-3.8-12.9 1-4.5 5-3.1 10.4-.3 15.2 11.4 19.4 23.1 38.7 35 57.8 2.1 3.4 3.2 6.1 2.5 10.5-1.3 8.2-1.4 16.8-.9 25.1.3 5.3 4.2 9.2 9.8 10 5.6.7 10.3-1.4 13.1-6.7 1.1-2.2 2.2-4.4 3.4-7.1 4.3 2 8.2 4.2 12.4 5.8 4.9 1.8 9.5 1 12.8-3.6 3.9-5 3-9.7-3.5-18.6z" fill="#eb2c3b"/><path d="m342.8 220.4c-9.2 0-13.5-3.5-13.4-10.8.1-7.1 6.5-11.9 15.5-11.7 6.3.1 9.9 4 9.8 10.5-.1 7.5-4.7 12.1-11.9 12z" fill="#eb2c3b"/><path d="m403.6 162.9c.1-7.5 4.6-11.8 12.1-11.5 6.4.2 10.5 4.6 10.5 11-.1 6.4-5.9 11.2-13.1 11-6.9-.3-9.6-3.2-9.5-10.5z" fill="#eb2c3b"/><path d="m391.6 185.4c0 7.1-3.3 10.4-10.3 10.5-8.5.1-12.5-3.1-12.6-9.8-.1-7.3 5.1-12.6 12.2-12.6 6.9 0 10.7 4.2 10.7 11.9z" fill="#eb2c3b"/><path d="m742.6 302.9c.1-6.7 3.4-10.5 9-10.3 5.9.2 9.4 4.5 9.2 11.2-.2 6.2-3.2 9-9.5 8.8-6-.1-8.8-3.3-8.7-9.7z" fill="#eb2c3b"/></svg>